<mxfile host="app.diagrams.net" modified="2021-11-02T11:53:19.272Z" agent="5.0 (Windows NT 10.0; Win64; x64) AppleWebKit/537.36 (KHTML, like Gecko) Chrome/94.0.4606.81 Safari/537.36 OPR/80.0.4170.63" etag="HK14XLxQpdkmUDr2gr9z" version="15.5.9" type="github">
  <diagram id="C5RBs43oDa-KdzZeNtuy" name="Page-1">
    <mxGraphModel dx="998" dy="548" grid="1" gridSize="10" guides="1" tooltips="1" connect="1" arrows="1" fold="1" page="1" pageScale="1" pageWidth="827" pageHeight="1169" math="0" shadow="0">
      <root>
        <mxCell id="WIyWlLk6GJQsqaUBKTNV-0" />
        <mxCell id="WIyWlLk6GJQsqaUBKTNV-1" parent="WIyWlLk6GJQsqaUBKTNV-0" />
        <mxCell id="-4Ovi9yf2yFajbggfB0S-118" style="edgeStyle=orthogonalEdgeStyle;rounded=0;orthogonalLoop=1;jettySize=auto;html=1;entryX=0.5;entryY=0;entryDx=0;entryDy=0;" edge="1" parent="WIyWlLk6GJQsqaUBKTNV-1" source="-4Ovi9yf2yFajbggfB0S-116" target="-4Ovi9yf2yFajbggfB0S-117">
          <mxGeometry relative="1" as="geometry" />
        </mxCell>
        <mxCell id="-4Ovi9yf2yFajbggfB0S-116" value="BAŞLA" style="ellipse;whiteSpace=wrap;html=1;" vertex="1" parent="WIyWlLk6GJQsqaUBKTNV-1">
          <mxGeometry x="50" width="120" height="80" as="geometry" />
        </mxCell>
        <mxCell id="-4Ovi9yf2yFajbggfB0S-120" style="edgeStyle=orthogonalEdgeStyle;rounded=0;orthogonalLoop=1;jettySize=auto;html=1;entryX=0.5;entryY=0;entryDx=0;entryDy=0;" edge="1" parent="WIyWlLk6GJQsqaUBKTNV-1" source="-4Ovi9yf2yFajbggfB0S-117" target="-4Ovi9yf2yFajbggfB0S-119">
          <mxGeometry relative="1" as="geometry" />
        </mxCell>
        <mxCell id="-4Ovi9yf2yFajbggfB0S-117" value="A,B,C değerini gir" style="shape=parallelogram;perimeter=parallelogramPerimeter;whiteSpace=wrap;html=1;fixedSize=1;" vertex="1" parent="WIyWlLk6GJQsqaUBKTNV-1">
          <mxGeometry x="50" y="110" width="120" height="60" as="geometry" />
        </mxCell>
        <mxCell id="-4Ovi9yf2yFajbggfB0S-123" style="edgeStyle=orthogonalEdgeStyle;rounded=0;orthogonalLoop=1;jettySize=auto;html=1;entryX=0.5;entryY=0;entryDx=0;entryDy=0;" edge="1" parent="WIyWlLk6GJQsqaUBKTNV-1" source="-4Ovi9yf2yFajbggfB0S-119" target="-4Ovi9yf2yFajbggfB0S-121">
          <mxGeometry relative="1" as="geometry" />
        </mxCell>
        <mxCell id="-4Ovi9yf2yFajbggfB0S-131" style="edgeStyle=orthogonalEdgeStyle;rounded=0;orthogonalLoop=1;jettySize=auto;html=1;entryX=0;entryY=0.5;entryDx=0;entryDy=0;" edge="1" parent="WIyWlLk6GJQsqaUBKTNV-1" source="-4Ovi9yf2yFajbggfB0S-119" target="-4Ovi9yf2yFajbggfB0S-129">
          <mxGeometry relative="1" as="geometry" />
        </mxCell>
        <mxCell id="-4Ovi9yf2yFajbggfB0S-119" value="A&amp;lt;B" style="rhombus;whiteSpace=wrap;html=1;" vertex="1" parent="WIyWlLk6GJQsqaUBKTNV-1">
          <mxGeometry x="70" y="200" width="80" height="80" as="geometry" />
        </mxCell>
        <mxCell id="-4Ovi9yf2yFajbggfB0S-125" style="edgeStyle=orthogonalEdgeStyle;rounded=0;orthogonalLoop=1;jettySize=auto;html=1;entryX=0.5;entryY=0;entryDx=0;entryDy=0;" edge="1" parent="WIyWlLk6GJQsqaUBKTNV-1" source="-4Ovi9yf2yFajbggfB0S-121" target="-4Ovi9yf2yFajbggfB0S-124">
          <mxGeometry relative="1" as="geometry" />
        </mxCell>
        <mxCell id="-4Ovi9yf2yFajbggfB0S-139" style="edgeStyle=orthogonalEdgeStyle;rounded=0;orthogonalLoop=1;jettySize=auto;html=1;entryX=0;entryY=0.5;entryDx=0;entryDy=0;" edge="1" parent="WIyWlLk6GJQsqaUBKTNV-1" source="-4Ovi9yf2yFajbggfB0S-121" target="-4Ovi9yf2yFajbggfB0S-135">
          <mxGeometry relative="1" as="geometry" />
        </mxCell>
        <mxCell id="-4Ovi9yf2yFajbggfB0S-121" value="B&amp;lt;C" style="rhombus;whiteSpace=wrap;html=1;" vertex="1" parent="WIyWlLk6GJQsqaUBKTNV-1">
          <mxGeometry x="70" y="310" width="80" height="80" as="geometry" />
        </mxCell>
        <mxCell id="-4Ovi9yf2yFajbggfB0S-127" style="edgeStyle=orthogonalEdgeStyle;rounded=0;orthogonalLoop=1;jettySize=auto;html=1;entryX=0.5;entryY=0;entryDx=0;entryDy=0;" edge="1" parent="WIyWlLk6GJQsqaUBKTNV-1" source="-4Ovi9yf2yFajbggfB0S-124" target="-4Ovi9yf2yFajbggfB0S-126">
          <mxGeometry relative="1" as="geometry" />
        </mxCell>
        <mxCell id="-4Ovi9yf2yFajbggfB0S-141" style="edgeStyle=orthogonalEdgeStyle;rounded=0;orthogonalLoop=1;jettySize=auto;html=1;entryX=0;entryY=0.5;entryDx=0;entryDy=0;" edge="1" parent="WIyWlLk6GJQsqaUBKTNV-1" source="-4Ovi9yf2yFajbggfB0S-124" target="-4Ovi9yf2yFajbggfB0S-140">
          <mxGeometry relative="1" as="geometry" />
        </mxCell>
        <mxCell id="-4Ovi9yf2yFajbggfB0S-124" value="A&amp;lt;C" style="rhombus;whiteSpace=wrap;html=1;" vertex="1" parent="WIyWlLk6GJQsqaUBKTNV-1">
          <mxGeometry x="70" y="430" width="80" height="80" as="geometry" />
        </mxCell>
        <mxCell id="-4Ovi9yf2yFajbggfB0S-126" value="En küçük B,&lt;br&gt;en büyük A" style="shape=document;whiteSpace=wrap;html=1;boundedLbl=1;" vertex="1" parent="WIyWlLk6GJQsqaUBKTNV-1">
          <mxGeometry x="50" y="530" width="120" height="80" as="geometry" />
        </mxCell>
        <mxCell id="-4Ovi9yf2yFajbggfB0S-136" style="edgeStyle=orthogonalEdgeStyle;rounded=0;orthogonalLoop=1;jettySize=auto;html=1;" edge="1" parent="WIyWlLk6GJQsqaUBKTNV-1" source="-4Ovi9yf2yFajbggfB0S-128" target="-4Ovi9yf2yFajbggfB0S-132">
          <mxGeometry relative="1" as="geometry">
            <Array as="points">
              <mxPoint x="290" y="70" />
            </Array>
          </mxGeometry>
        </mxCell>
        <mxCell id="-4Ovi9yf2yFajbggfB0S-137" style="edgeStyle=orthogonalEdgeStyle;rounded=0;orthogonalLoop=1;jettySize=auto;html=1;entryX=0.003;entryY=0.35;entryDx=0;entryDy=0;entryPerimeter=0;" edge="1" parent="WIyWlLk6GJQsqaUBKTNV-1" source="-4Ovi9yf2yFajbggfB0S-128" target="-4Ovi9yf2yFajbggfB0S-133">
          <mxGeometry relative="1" as="geometry" />
        </mxCell>
        <mxCell id="-4Ovi9yf2yFajbggfB0S-128" value="B&amp;lt;C" style="rhombus;whiteSpace=wrap;html=1;" vertex="1" parent="WIyWlLk6GJQsqaUBKTNV-1">
          <mxGeometry x="250" y="90" width="80" height="80" as="geometry" />
        </mxCell>
        <mxCell id="-4Ovi9yf2yFajbggfB0S-130" style="edgeStyle=orthogonalEdgeStyle;rounded=0;orthogonalLoop=1;jettySize=auto;html=1;entryX=0.5;entryY=1;entryDx=0;entryDy=0;" edge="1" parent="WIyWlLk6GJQsqaUBKTNV-1" source="-4Ovi9yf2yFajbggfB0S-129" target="-4Ovi9yf2yFajbggfB0S-128">
          <mxGeometry relative="1" as="geometry" />
        </mxCell>
        <mxCell id="-4Ovi9yf2yFajbggfB0S-138" style="edgeStyle=orthogonalEdgeStyle;rounded=0;orthogonalLoop=1;jettySize=auto;html=1;entryX=-0.003;entryY=0.395;entryDx=0;entryDy=0;entryPerimeter=0;" edge="1" parent="WIyWlLk6GJQsqaUBKTNV-1" source="-4Ovi9yf2yFajbggfB0S-129" target="-4Ovi9yf2yFajbggfB0S-134">
          <mxGeometry relative="1" as="geometry" />
        </mxCell>
        <mxCell id="-4Ovi9yf2yFajbggfB0S-129" value="A&amp;lt;C" style="rhombus;whiteSpace=wrap;html=1;" vertex="1" parent="WIyWlLk6GJQsqaUBKTNV-1">
          <mxGeometry x="250" y="200" width="80" height="80" as="geometry" />
        </mxCell>
        <mxCell id="-4Ovi9yf2yFajbggfB0S-143" style="edgeStyle=orthogonalEdgeStyle;rounded=0;orthogonalLoop=1;jettySize=auto;html=1;entryX=0.5;entryY=0;entryDx=0;entryDy=0;" edge="1" parent="WIyWlLk6GJQsqaUBKTNV-1" source="-4Ovi9yf2yFajbggfB0S-132" target="-4Ovi9yf2yFajbggfB0S-142">
          <mxGeometry relative="1" as="geometry" />
        </mxCell>
        <mxCell id="-4Ovi9yf2yFajbggfB0S-132" value="En küçük A,&lt;br&gt;en büyük B" style="shape=document;whiteSpace=wrap;html=1;boundedLbl=1;" vertex="1" parent="WIyWlLk6GJQsqaUBKTNV-1">
          <mxGeometry x="520" y="30" width="120" height="80" as="geometry" />
        </mxCell>
        <mxCell id="-4Ovi9yf2yFajbggfB0S-144" style="edgeStyle=orthogonalEdgeStyle;rounded=0;orthogonalLoop=1;jettySize=auto;html=1;" edge="1" parent="WIyWlLk6GJQsqaUBKTNV-1" source="-4Ovi9yf2yFajbggfB0S-133">
          <mxGeometry relative="1" as="geometry">
            <mxPoint x="810" y="180" as="targetPoint" />
          </mxGeometry>
        </mxCell>
        <mxCell id="-4Ovi9yf2yFajbggfB0S-133" value="En küçük A,&lt;br&gt;en büyük B" style="shape=document;whiteSpace=wrap;html=1;boundedLbl=1;" vertex="1" parent="WIyWlLk6GJQsqaUBKTNV-1">
          <mxGeometry x="520" y="140" width="120" height="80" as="geometry" />
        </mxCell>
        <mxCell id="-4Ovi9yf2yFajbggfB0S-145" style="edgeStyle=orthogonalEdgeStyle;rounded=0;orthogonalLoop=1;jettySize=auto;html=1;" edge="1" parent="WIyWlLk6GJQsqaUBKTNV-1" source="-4Ovi9yf2yFajbggfB0S-134">
          <mxGeometry relative="1" as="geometry">
            <mxPoint x="810" y="290" as="targetPoint" />
          </mxGeometry>
        </mxCell>
        <mxCell id="-4Ovi9yf2yFajbggfB0S-134" value="En küçük C,&lt;br&gt;en büyük B" style="shape=document;whiteSpace=wrap;html=1;boundedLbl=1;" vertex="1" parent="WIyWlLk6GJQsqaUBKTNV-1">
          <mxGeometry x="520" y="250" width="120" height="80" as="geometry" />
        </mxCell>
        <mxCell id="-4Ovi9yf2yFajbggfB0S-146" style="edgeStyle=orthogonalEdgeStyle;rounded=0;orthogonalLoop=1;jettySize=auto;html=1;" edge="1" parent="WIyWlLk6GJQsqaUBKTNV-1" source="-4Ovi9yf2yFajbggfB0S-135">
          <mxGeometry relative="1" as="geometry">
            <mxPoint x="810" y="400" as="targetPoint" />
          </mxGeometry>
        </mxCell>
        <mxCell id="-4Ovi9yf2yFajbggfB0S-135" value="En küçük C,&lt;br&gt;en büyük A" style="shape=document;whiteSpace=wrap;html=1;boundedLbl=1;" vertex="1" parent="WIyWlLk6GJQsqaUBKTNV-1">
          <mxGeometry x="520" y="360" width="120" height="80" as="geometry" />
        </mxCell>
        <mxCell id="-4Ovi9yf2yFajbggfB0S-147" style="edgeStyle=orthogonalEdgeStyle;rounded=0;orthogonalLoop=1;jettySize=auto;html=1;" edge="1" parent="WIyWlLk6GJQsqaUBKTNV-1" source="-4Ovi9yf2yFajbggfB0S-140">
          <mxGeometry relative="1" as="geometry">
            <mxPoint x="810" y="500" as="targetPoint" />
          </mxGeometry>
        </mxCell>
        <mxCell id="-4Ovi9yf2yFajbggfB0S-140" value="En küçük B,&lt;br&gt;en büyük C" style="shape=document;whiteSpace=wrap;html=1;boundedLbl=1;" vertex="1" parent="WIyWlLk6GJQsqaUBKTNV-1">
          <mxGeometry x="520" y="470" width="120" height="80" as="geometry" />
        </mxCell>
        <mxCell id="-4Ovi9yf2yFajbggfB0S-142" value="BİTİR" style="ellipse;whiteSpace=wrap;html=1;" vertex="1" parent="WIyWlLk6GJQsqaUBKTNV-1">
          <mxGeometry x="750" y="520" width="120" height="80" as="geometry" />
        </mxCell>
        <mxCell id="-4Ovi9yf2yFajbggfB0S-150" value="E" style="text;html=1;align=center;verticalAlign=middle;resizable=0;points=[];autosize=1;strokeColor=none;fillColor=none;" vertex="1" parent="WIyWlLk6GJQsqaUBKTNV-1">
          <mxGeometry x="170" y="210" width="20" height="20" as="geometry" />
        </mxCell>
        <mxCell id="-4Ovi9yf2yFajbggfB0S-151" value="H" style="text;html=1;align=center;verticalAlign=middle;resizable=0;points=[];autosize=1;strokeColor=none;fillColor=none;" vertex="1" parent="WIyWlLk6GJQsqaUBKTNV-1">
          <mxGeometry x="200" y="320" width="20" height="20" as="geometry" />
        </mxCell>
        <mxCell id="-4Ovi9yf2yFajbggfB0S-152" value="E" style="text;html=1;align=center;verticalAlign=middle;resizable=0;points=[];autosize=1;strokeColor=none;fillColor=none;" vertex="1" parent="WIyWlLk6GJQsqaUBKTNV-1">
          <mxGeometry x="200" y="440" width="20" height="20" as="geometry" />
        </mxCell>
        <mxCell id="-4Ovi9yf2yFajbggfB0S-153" value="H" style="text;html=1;align=center;verticalAlign=middle;resizable=0;points=[];autosize=1;strokeColor=none;fillColor=none;" vertex="1" parent="WIyWlLk6GJQsqaUBKTNV-1">
          <mxGeometry x="70" y="280" width="20" height="20" as="geometry" />
        </mxCell>
        <mxCell id="-4Ovi9yf2yFajbggfB0S-154" value="E" style="text;html=1;align=center;verticalAlign=middle;resizable=0;points=[];autosize=1;strokeColor=none;fillColor=none;" vertex="1" parent="WIyWlLk6GJQsqaUBKTNV-1">
          <mxGeometry x="80" y="400" width="20" height="20" as="geometry" />
        </mxCell>
        <mxCell id="-4Ovi9yf2yFajbggfB0S-155" value="H" style="text;html=1;align=center;verticalAlign=middle;resizable=0;points=[];autosize=1;strokeColor=none;fillColor=none;" vertex="1" parent="WIyWlLk6GJQsqaUBKTNV-1">
          <mxGeometry x="330" y="50" width="20" height="20" as="geometry" />
        </mxCell>
        <mxCell id="-4Ovi9yf2yFajbggfB0S-156" value="E" style="text;html=1;align=center;verticalAlign=middle;resizable=0;points=[];autosize=1;strokeColor=none;fillColor=none;" vertex="1" parent="WIyWlLk6GJQsqaUBKTNV-1">
          <mxGeometry x="380" y="110" width="20" height="20" as="geometry" />
        </mxCell>
        <mxCell id="-4Ovi9yf2yFajbggfB0S-157" value="E" style="text;html=1;align=center;verticalAlign=middle;resizable=0;points=[];autosize=1;strokeColor=none;fillColor=none;" vertex="1" parent="WIyWlLk6GJQsqaUBKTNV-1">
          <mxGeometry x="290" y="180" width="20" height="20" as="geometry" />
        </mxCell>
        <mxCell id="-4Ovi9yf2yFajbggfB0S-158" value="H" style="text;html=1;align=center;verticalAlign=middle;resizable=0;points=[];autosize=1;strokeColor=none;fillColor=none;" vertex="1" parent="WIyWlLk6GJQsqaUBKTNV-1">
          <mxGeometry x="350" y="220" width="20" height="20" as="geometry" />
        </mxCell>
      </root>
    </mxGraphModel>
  </diagram>
</mxfile>
